solid 20250724_allsipms_assembly_simplified_aluminumfoil_coarsemesh
   facet normal 1.000000e-15 -1.000000e-15 1.000000e+00
      outer loop
         vertex -6.203036e-15 7.937500e+00 -5.080000e-01
         vertex -6.387034e-01 7.911761e+00 -5.080000e-01
         vertex -9.119226e-15 -3.439761e-16 -5.080000e-01
      endloop
   endfacet
   facet normal 1.000000e-15 -1.000000e-15 1.000000e+00
      outer loop
         vertex 3.111235e+00 7.302337e+00 -5.080000e-01
         vertex 1.899568e+00 7.706851e+00 -5.080000e-01
         vertex -9.119226e-15 -3.439761e-16 -5.080000e-01
      endloop
   endfacet
   facet normal 1.000000e-15 -1.000000e-15 1.000000e+00
      outer loop
         vertex -9.119226e-15 -3.439761e-16 -5.080000e-01
         vertex 1.899568e+00 7.706851e+00 -5.080000e-01
         vertex 6.387034e-01 7.911761e+00 -5.080000e-01
      endloop
   endfacet
   facet normal 1.000000e-15 -1.000000e-15 1.000000e+00
      outer loop
         vertex -9.119226e-15 -3.439761e-16 -5.080000e-01
         vertex 6.387034e-01 7.911761e+00 -5.080000e-01
         vertex -6.203036e-15 7.937500e+00 -5.080000e-01
      endloop
   endfacet
   facet normal 1.000000e-15 -1.000000e-15 1.000000e+00
      outer loop
         vertex 6.148427e+00 5.020035e+00 -5.080000e-01
         vertex 5.263536e+00 5.941304e+00 -5.080000e-01
         vertex -9.119226e-15 -3.439761e-16 -5.080000e-01
      endloop
   endfacet
   facet normal 1.000000e-15 -1.000000e-15 1.000000e+00
      outer loop
         vertex -9.119226e-15 -3.439761e-16 -5.080000e-01
         vertex 5.263536e+00 5.941304e+00 -5.080000e-01
         vertex 4.242322e+00 6.708696e+00 -5.080000e-01
      endloop
   endfacet
   facet normal 1.000000e-15 -1.000000e-15 1.000000e+00
      outer loop
         vertex -9.119226e-15 -3.439761e-16 -5.080000e-01
         vertex 4.242322e+00 6.708696e+00 -5.080000e-01
         vertex 3.111235e+00 7.302337e+00 -5.080000e-01
      endloop
   endfacet
   facet normal 1.000000e-15 -1.000000e-15 1.000000e+00
      outer loop
         vertex 7.777088e+00 1.587704e+00 -5.080000e-01
         vertex 7.421691e+00 2.814676e+00 -5.080000e-01
         vertex -9.119226e-15 -3.439761e-16 -5.080000e-01
      endloop
   endfacet
   facet normal 1.000000e-15 -1.000000e-15 1.000000e+00
      outer loop
         vertex -9.119226e-15 -3.439761e-16 -5.080000e-01
         vertex 7.421691e+00 2.814676e+00 -5.080000e-01
         vertex 6.874077e+00 3.968750e+00 -5.080000e-01
      endloop
   endfacet
   facet normal 1.000000e-15 -1.000000e-15 1.000000e+00
      outer loop
         vertex -9.119226e-15 -3.439761e-16 -5.080000e-01
         vertex 6.874077e+00 3.968750e+00 -5.080000e-01
         vertex 6.148427e+00 5.020035e+00 -5.080000e-01
      endloop
   endfacet
   facet normal 1.000000e-15 -1.000000e-15 1.000000e+00
      outer loop
         vertex 7.624113e+00 -2.208351e+00 -5.080000e-01
         vertex 7.879627e+00 -9.567599e-01 -5.080000e-01
         vertex -9.119226e-15 -3.439761e-16 -5.080000e-01
      endloop
   endfacet
   facet normal 1.000000e-15 -1.000000e-15 1.000000e+00
      outer loop
         vertex -9.119226e-15 -3.439761e-16 -5.080000e-01
         vertex 7.879627e+00 -9.567599e-01 -5.080000e-01
         vertex 7.931063e+00 3.196109e-01 -5.080000e-01
      endloop
   endfacet
   facet normal 1.000000e-15 -1.000000e-15 1.000000e+00
      outer loop
         vertex -9.119226e-15 -3.439761e-16 -5.080000e-01
         vertex 7.931063e+00 3.196109e-01 -5.080000e-01
         vertex 7.777088e+00 1.587704e+00 -5.080000e-01
      endloop
   endfacet
   facet normal 1.000000e-15 -1.000000e-15 1.000000e+00
      outer loop
         vertex 5.724545e+00 -5.498500e+00 -5.080000e-01
         vertex 6.532434e+00 -4.509014e+00 -5.080000e-01
         vertex -9.119226e-15 -3.439761e-16 -5.080000e-01
      endloop
   endfacet
   facet normal 1.000000e-15 -1.000000e-15 1.000000e+00
      outer loop
         vertex -9.119226e-15 -3.439761e-16 -5.080000e-01
         vertex 6.532434e+00 -4.509014e+00 -5.080000e-01
         vertex 7.171138e+00 -3.402747e+00 -5.080000e-01
      endloop
   endfacet
   facet normal 1.000000e-15 -1.000000e-15 1.000000e+00
      outer loop
         vertex -9.119226e-15 -3.439761e-16 -5.080000e-01
         vertex 7.171138e+00 -3.402747e+00 -5.080000e-01
         vertex 7.624113e+00 -2.208351e+00 -5.080000e-01
      endloop
   endfacet
   facet normal 1.000000e-15 -1.000000e-15 1.000000e+00
      outer loop
         vertex 2.513552e+00 -7.529008e+00 -5.080000e-01
         vertex 3.688740e+00 -7.028307e+00 -5.080000e-01
         vertex -9.119226e-15 -3.439761e-16 -5.080000e-01
      endloop
   endfacet
   facet normal 1.000000e-15 -1.000000e-15 1.000000e+00
      outer loop
         vertex -9.119226e-15 -3.439761e-16 -5.080000e-01
         vertex 3.688740e+00 -7.028307e+00 -5.080000e-01
         vertex 4.768392e+00 -6.345577e+00 -5.080000e-01
      endloop
   endfacet
   facet normal 1.000000e-15 -1.000000e-15 1.000000e+00
      outer loop
         vertex -9.119226e-15 -3.439761e-16 -5.080000e-01
         vertex 4.768392e+00 -6.345577e+00 -5.080000e-01
         vertex 5.724545e+00 -5.498500e+00 -5.080000e-01
      endloop
   endfacet
   facet normal 1.000000e-15 -1.000000e-15 1.000000e+00
      outer loop
         vertex -1.273265e+00 -7.834711e+00 -5.080000e-01
         vertex -9.119226e-15 -7.937500e+00 -5.080000e-01
         vertex -9.119226e-15 -3.439761e-16 -5.080000e-01
      endloop
   endfacet
   facet normal 1.000000e-15 -1.000000e-15 1.000000e+00
      outer loop
         vertex -9.119226e-15 -3.439761e-16 -5.080000e-01
         vertex -9.119226e-15 -7.937500e+00 -5.080000e-01
         vertex 1.273265e+00 -7.834711e+00 -5.080000e-01
      endloop
   endfacet
   facet normal 1.000000e-15 -1.000000e-15 1.000000e+00
      outer loop
         vertex -9.119226e-15 -3.439761e-16 -5.080000e-01
         vertex 1.273265e+00 -7.834711e+00 -5.080000e-01
         vertex 2.513552e+00 -7.529008e+00 -5.080000e-01
      endloop
   endfacet
   facet normal 1.000000e-15 -1.000000e-15 1.000000e+00
      outer loop
         vertex -4.768392e+00 -6.345577e+00 -5.080000e-01
         vertex -3.688740e+00 -7.028307e+00 -5.080000e-01
         vertex -9.119226e-15 -3.439761e-16 -5.080000e-01
      endloop
   endfacet
   facet normal 1.000000e-15 -1.000000e-15 1.000000e+00
      outer loop
         vertex -9.119226e-15 -3.439761e-16 -5.080000e-01
         vertex -3.688740e+00 -7.028307e+00 -5.080000e-01
         vertex -2.513552e+00 -7.529008e+00 -5.080000e-01
      endloop
   endfacet
   facet normal 1.000000e-15 -1.000000e-15 1.000000e+00
      outer loop
         vertex -9.119226e-15 -3.439761e-16 -5.080000e-01
         vertex -2.513552e+00 -7.529008e+00 -5.080000e-01
         vertex -1.273265e+00 -7.834711e+00 -5.080000e-01
      endloop
   endfacet
   facet normal 1.000000e-15 -1.000000e-15 1.000000e+00
      outer loop
         vertex -7.171138e+00 -3.402747e+00 -5.080000e-01
         vertex -6.532434e+00 -4.509014e+00 -5.080000e-01
         vertex -9.119226e-15 -3.439761e-16 -5.080000e-01
      endloop
   endfacet
   facet normal 1.000000e-15 -1.000000e-15 1.000000e+00
      outer loop
         vertex -9.119226e-15 -3.439761e-16 -5.080000e-01
         vertex -6.532434e+00 -4.509014e+00 -5.080000e-01
         vertex -5.724545e+00 -5.498500e+00 -5.080000e-01
      endloop
   endfacet
   facet normal 1.000000e-15 -1.000000e-15 1.000000e+00
      outer loop
         vertex -9.119226e-15 -3.439761e-16 -5.080000e-01
         vertex -5.724545e+00 -5.498500e+00 -5.080000e-01
         vertex -4.768392e+00 -6.345577e+00 -5.080000e-01
      endloop
   endfacet
   facet normal 1.000000e-15 -1.000000e-15 1.000000e+00
      outer loop
         vertex -7.931063e+00 3.196109e-01 -5.080000e-01
         vertex -7.879627e+00 -9.567599e-01 -5.080000e-01
         vertex -9.119226e-15 -3.439761e-16 -5.080000e-01
      endloop
   endfacet
   facet normal 1.000000e-15 -1.000000e-15 1.000000e+00
      outer loop
         vertex -9.119226e-15 -3.439761e-16 -5.080000e-01
         vertex -7.879627e+00 -9.567599e-01 -5.080000e-01
         vertex -7.624113e+00 -2.208351e+00 -5.080000e-01
      endloop
   endfacet
   facet normal 1.000000e-15 -1.000000e-15 1.000000e+00
      outer loop
         vertex -9.119226e-15 -3.439761e-16 -5.080000e-01
         vertex -7.624113e+00 -2.208351e+00 -5.080000e-01
         vertex -7.171138e+00 -3.402747e+00 -5.080000e-01
      endloop
   endfacet
   facet normal 1.000000e-15 -1.000000e-15 1.000000e+00
      outer loop
         vertex -6.874077e+00 3.968750e+00 -5.080000e-01
         vertex -7.421691e+00 2.814676e+00 -5.080000e-01
         vertex -9.119226e-15 -3.439761e-16 -5.080000e-01
      endloop
   endfacet
   facet normal 1.000000e-15 -1.000000e-15 1.000000e+00
      outer loop
         vertex -9.119226e-15 -3.439761e-16 -5.080000e-01
         vertex -7.421691e+00 2.814676e+00 -5.080000e-01
         vertex -7.777088e+00 1.587704e+00 -5.080000e-01
      endloop
   endfacet
   facet normal 1.000000e-15 -1.000000e-15 1.000000e+00
      outer loop
         vertex -9.119226e-15 -3.439761e-16 -5.080000e-01
         vertex -7.777088e+00 1.587704e+00 -5.080000e-01
         vertex -7.931063e+00 3.196109e-01 -5.080000e-01
      endloop
   endfacet
   facet normal 1.000000e-15 -1.000000e-15 1.000000e+00
      outer loop
         vertex -4.242322e+00 6.708696e+00 -5.080000e-01
         vertex -5.263536e+00 5.941304e+00 -5.080000e-01
         vertex -9.119226e-15 -3.439761e-16 -5.080000e-01
      endloop
   endfacet
   facet normal 1.000000e-15 -1.000000e-15 1.000000e+00
      outer loop
         vertex -9.119226e-15 -3.439761e-16 -5.080000e-01
         vertex -5.263536e+00 5.941304e+00 -5.080000e-01
         vertex -6.148427e+00 5.020035e+00 -5.080000e-01
      endloop
   endfacet
   facet normal 1.000000e-15 -1.000000e-15 1.000000e+00
      outer loop
         vertex -9.119226e-15 -3.439761e-16 -5.080000e-01
         vertex -6.148427e+00 5.020035e+00 -5.080000e-01
         vertex -6.874077e+00 3.968750e+00 -5.080000e-01
      endloop
   endfacet
   facet normal 1.000000e-15 -1.000000e-15 1.000000e+00
      outer loop
         vertex -6.387034e-01 7.911761e+00 -5.080000e-01
         vertex -1.899568e+00 7.706851e+00 -5.080000e-01
         vertex -9.119226e-15 -3.439761e-16 -5.080000e-01
      endloop
   endfacet
   facet normal 1.000000e-15 -1.000000e-15 1.000000e+00
      outer loop
         vertex -9.119226e-15 -3.439761e-16 -5.080000e-01
         vertex -1.899568e+00 7.706851e+00 -5.080000e-01
         vertex -3.111235e+00 7.302337e+00 -5.080000e-01
      endloop
   endfacet
   facet normal 1.000000e-15 -1.000000e-15 1.000000e+00
      outer loop
         vertex -9.119226e-15 -3.439761e-16 -5.080000e-01
         vertex -3.111235e+00 7.302337e+00 -5.080000e-01
         vertex -4.242322e+00 6.708696e+00 -5.080000e-01
      endloop
   endfacet
   facet normal -1.000000e-15 1.000000e-15 -1.000000e+00
      outer loop
         vertex -4.659806e-15 7.937500e+00 -5.842000e-01
         vertex 6.387034e-01 7.911761e+00 -5.842000e-01
         vertex -9.156827e-15 -3.177026e-16 -5.842000e-01
      endloop
   endfacet
   facet normal -1.000000e-15 1.000000e-15 -1.000000e+00
      outer loop
         vertex -3.111235e+00 7.302337e+00 -5.842000e-01
         vertex -1.899568e+00 7.706851e+00 -5.842000e-01
         vertex -9.156827e-15 -3.177026e-16 -5.842000e-01
      endloop
   endfacet
   facet normal -1.000000e-15 1.000000e-15 -1.000000e+00
      outer loop
         vertex -9.156827e-15 -3.177026e-16 -5.842000e-01
         vertex -1.899568e+00 7.706851e+00 -5.842000e-01
         vertex -6.387034e-01 7.911761e+00 -5.842000e-01
      endloop
   endfacet
   facet normal -1.000000e-15 1.000000e-15 -1.000000e+00
      outer loop
         vertex -9.156827e-15 -3.177026e-16 -5.842000e-01
         vertex -6.387034e-01 7.911761e+00 -5.842000e-01
         vertex -4.659806e-15 7.937500e+00 -5.842000e-01
      endloop
   endfacet
   facet normal -1.000000e-15 1.000000e-15 -1.000000e+00
      outer loop
         vertex -6.148427e+00 5.020035e+00 -5.842000e-01
         vertex -5.263536e+00 5.941304e+00 -5.842000e-01
         vertex -9.156827e-15 -3.177026e-16 -5.842000e-01
      endloop
   endfacet
   facet normal -1.000000e-15 1.000000e-15 -1.000000e+00
      outer loop
         vertex -9.156827e-15 -3.177026e-16 -5.842000e-01
         vertex -5.263536e+00 5.941304e+00 -5.842000e-01
         vertex -4.242322e+00 6.708696e+00 -5.842000e-01
      endloop
   endfacet
   facet normal -1.000000e-15 1.000000e-15 -1.000000e+00
      outer loop
         vertex -9.156827e-15 -3.177026e-16 -5.842000e-01
         vertex -4.242322e+00 6.708696e+00 -5.842000e-01
         vertex -3.111235e+00 7.302337e+00 -5.842000e-01
      endloop
   endfacet
   facet normal -1.000000e-15 1.000000e-15 -1.000000e+00
      outer loop
         vertex -7.777088e+00 1.587704e+00 -5.842000e-01
         vertex -7.421691e+00 2.814676e+00 -5.842000e-01
         vertex -9.156827e-15 -3.177026e-16 -5.842000e-01
      endloop
   endfacet
   facet normal -1.000000e-15 1.000000e-15 -1.000000e+00
      outer loop
         vertex -9.156827e-15 -3.177026e-16 -5.842000e-01
         vertex -7.421691e+00 2.814676e+00 -5.842000e-01
         vertex -6.874077e+00 3.968750e+00 -5.842000e-01
      endloop
   endfacet
   facet normal -1.000000e-15 1.000000e-15 -1.000000e+00
      outer loop
         vertex -9.156827e-15 -3.177026e-16 -5.842000e-01
         vertex -6.874077e+00 3.968750e+00 -5.842000e-01
         vertex -6.148427e+00 5.020035e+00 -5.842000e-01
      endloop
   endfacet
   facet normal -1.000000e-15 1.000000e-15 -1.000000e+00
      outer loop
         vertex -7.624113e+00 -2.208351e+00 -5.842000e-01
         vertex -7.879627e+00 -9.567599e-01 -5.842000e-01
         vertex -9.156827e-15 -3.177026e-16 -5.842000e-01
      endloop
   endfacet
   facet normal -1.000000e-15 1.000000e-15 -1.000000e+00
      outer loop
         vertex -9.156827e-15 -3.177026e-16 -5.842000e-01
         vertex -7.879627e+00 -9.567599e-01 -5.842000e-01
         vertex -7.931063e+00 3.196109e-01 -5.842000e-01
      endloop
   endfacet
   facet normal -1.000000e-15 1.000000e-15 -1.000000e+00
      outer loop
         vertex -9.156827e-15 -3.177026e-16 -5.842000e-01
         vertex -7.931063e+00 3.196109e-01 -5.842000e-01
         vertex -7.777088e+00 1.587704e+00 -5.842000e-01
      endloop
   endfacet
   facet normal -1.000000e-15 1.000000e-15 -1.000000e+00
      outer loop
         vertex -5.724545e+00 -5.498500e+00 -5.842000e-01
         vertex -6.532434e+00 -4.509014e+00 -5.842000e-01
         vertex -9.156827e-15 -3.177026e-16 -5.842000e-01
      endloop
   endfacet
   facet normal -1.000000e-15 1.000000e-15 -1.000000e+00
      outer loop
         vertex -9.156827e-15 -3.177026e-16 -5.842000e-01
         vertex -6.532434e+00 -4.509014e+00 -5.842000e-01
         vertex -7.171138e+00 -3.402747e+00 -5.842000e-01
      endloop
   endfacet
   facet normal -1.000000e-15 1.000000e-15 -1.000000e+00
      outer loop
         vertex -9.156827e-15 -3.177026e-16 -5.842000e-01
         vertex -7.171138e+00 -3.402747e+00 -5.842000e-01
         vertex -7.624113e+00 -2.208351e+00 -5.842000e-01
      endloop
   endfacet
   facet normal -1.000000e-15 1.000000e-15 -1.000000e+00
      outer loop
         vertex -2.513552e+00 -7.529008e+00 -5.842000e-01
         vertex -3.688740e+00 -7.028307e+00 -5.842000e-01
         vertex -9.156827e-15 -3.177026e-16 -5.842000e-01
      endloop
   endfacet
   facet normal -1.000000e-15 1.000000e-15 -1.000000e+00
      outer loop
         vertex -9.156827e-15 -3.177026e-16 -5.842000e-01
         vertex -3.688740e+00 -7.028307e+00 -5.842000e-01
         vertex -4.768392e+00 -6.345577e+00 -5.842000e-01
      endloop
   endfacet
   facet normal -1.000000e-15 1.000000e-15 -1.000000e+00
      outer loop
         vertex -9.156827e-15 -3.177026e-16 -5.842000e-01
         vertex -4.768392e+00 -6.345577e+00 -5.842000e-01
         vertex -5.724545e+00 -5.498500e+00 -5.842000e-01
      endloop
   endfacet
   facet normal -1.000000e-15 1.000000e-15 -1.000000e+00
      outer loop
         vertex 1.273265e+00 -7.834711e+00 -5.842000e-01
         vertex -9.156827e-15 -7.937500e+00 -5.842000e-01
         vertex -9.156827e-15 -3.177026e-16 -5.842000e-01
      endloop
   endfacet
   facet normal -1.000000e-15 1.000000e-15 -1.000000e+00
      outer loop
         vertex -9.156827e-15 -3.177026e-16 -5.842000e-01
         vertex -9.156827e-15 -7.937500e+00 -5.842000e-01
         vertex -1.273265e+00 -7.834711e+00 -5.842000e-01
      endloop
   endfacet
   facet normal -1.000000e-15 1.000000e-15 -1.000000e+00
      outer loop
         vertex -9.156827e-15 -3.177026e-16 -5.842000e-01
         vertex -1.273265e+00 -7.834711e+00 -5.842000e-01
         vertex -2.513552e+00 -7.529008e+00 -5.842000e-01
      endloop
   endfacet
   facet normal -1.000000e-15 1.000000e-15 -1.000000e+00
      outer loop
         vertex 4.768392e+00 -6.345577e+00 -5.842000e-01
         vertex 3.688740e+00 -7.028307e+00 -5.842000e-01
         vertex -9.156827e-15 -3.177026e-16 -5.842000e-01
      endloop
   endfacet
   facet normal -1.000000e-15 1.000000e-15 -1.000000e+00
      outer loop
         vertex -9.156827e-15 -3.177026e-16 -5.842000e-01
         vertex 3.688740e+00 -7.028307e+00 -5.842000e-01
         vertex 2.513552e+00 -7.529008e+00 -5.842000e-01
      endloop
   endfacet
   facet normal -1.000000e-15 1.000000e-15 -1.000000e+00
      outer loop
         vertex -9.156827e-15 -3.177026e-16 -5.842000e-01
         vertex 2.513552e+00 -7.529008e+00 -5.842000e-01
         vertex 1.273265e+00 -7.834711e+00 -5.842000e-01
      endloop
   endfacet
   facet normal -1.000000e-15 1.000000e-15 -1.000000e+00
      outer loop
         vertex 7.171138e+00 -3.402747e+00 -5.842000e-01
         vertex 6.532434e+00 -4.509014e+00 -5.842000e-01
         vertex -9.156827e-15 -3.177026e-16 -5.842000e-01
      endloop
   endfacet
   facet normal -1.000000e-15 1.000000e-15 -1.000000e+00
      outer loop
         vertex -9.156827e-15 -3.177026e-16 -5.842000e-01
         vertex 6.532434e+00 -4.509014e+00 -5.842000e-01
         vertex 5.724545e+00 -5.498500e+00 -5.842000e-01
      endloop
   endfacet
   facet normal -1.000000e-15 1.000000e-15 -1.000000e+00
      outer loop
         vertex -9.156827e-15 -3.177026e-16 -5.842000e-01
         vertex 5.724545e+00 -5.498500e+00 -5.842000e-01
         vertex 4.768392e+00 -6.345577e+00 -5.842000e-01
      endloop
   endfacet
   facet normal -1.000000e-15 1.000000e-15 -1.000000e+00
      outer loop
         vertex 7.931063e+00 3.196109e-01 -5.842000e-01
         vertex 7.879627e+00 -9.567599e-01 -5.842000e-01
         vertex -9.156827e-15 -3.177026e-16 -5.842000e-01
      endloop
   endfacet
   facet normal -1.000000e-15 1.000000e-15 -1.000000e+00
      outer loop
         vertex -9.156827e-15 -3.177026e-16 -5.842000e-01
         vertex 7.879627e+00 -9.567599e-01 -5.842000e-01
         vertex 7.624113e+00 -2.208351e+00 -5.842000e-01
      endloop
   endfacet
   facet normal -1.000000e-15 1.000000e-15 -1.000000e+00
      outer loop
         vertex -9.156827e-15 -3.177026e-16 -5.842000e-01
         vertex 7.624113e+00 -2.208351e+00 -5.842000e-01
         vertex 7.171138e+00 -3.402747e+00 -5.842000e-01
      endloop
   endfacet
   facet normal -1.000000e-15 1.000000e-15 -1.000000e+00
      outer loop
         vertex 6.874077e+00 3.968750e+00 -5.842000e-01
         vertex 7.421691e+00 2.814676e+00 -5.842000e-01
         vertex -9.156827e-15 -3.177026e-16 -5.842000e-01
      endloop
   endfacet
   facet normal -1.000000e-15 1.000000e-15 -1.000000e+00
      outer loop
         vertex -9.156827e-15 -3.177026e-16 -5.842000e-01
         vertex 7.421691e+00 2.814676e+00 -5.842000e-01
         vertex 7.777088e+00 1.587704e+00 -5.842000e-01
      endloop
   endfacet
   facet normal -1.000000e-15 1.000000e-15 -1.000000e+00
      outer loop
         vertex -9.156827e-15 -3.177026e-16 -5.842000e-01
         vertex 7.777088e+00 1.587704e+00 -5.842000e-01
         vertex 7.931063e+00 3.196109e-01 -5.842000e-01
      endloop
   endfacet
   facet normal -1.000000e-15 1.000000e-15 -1.000000e+00
      outer loop
         vertex 4.242322e+00 6.708696e+00 -5.842000e-01
         vertex 5.263536e+00 5.941304e+00 -5.842000e-01
         vertex -9.156827e-15 -3.177026e-16 -5.842000e-01
      endloop
   endfacet
   facet normal -1.000000e-15 1.000000e-15 -1.000000e+00
      outer loop
         vertex -9.156827e-15 -3.177026e-16 -5.842000e-01
         vertex 5.263536e+00 5.941304e+00 -5.842000e-01
         vertex 6.148427e+00 5.020035e+00 -5.842000e-01
      endloop
   endfacet
   facet normal -1.000000e-15 1.000000e-15 -1.000000e+00
      outer loop
         vertex -9.156827e-15 -3.177026e-16 -5.842000e-01
         vertex 6.148427e+00 5.020035e+00 -5.842000e-01
         vertex 6.874077e+00 3.968750e+00 -5.842000e-01
      endloop
   endfacet
   facet normal -1.000000e-15 1.000000e-15 -1.000000e+00
      outer loop
         vertex 6.387034e-01 7.911761e+00 -5.842000e-01
         vertex 1.899568e+00 7.706851e+00 -5.842000e-01
         vertex -9.156827e-15 -3.177026e-16 -5.842000e-01
      endloop
   endfacet
   facet normal -1.000000e-15 1.000000e-15 -1.000000e+00
      outer loop
         vertex -9.156827e-15 -3.177026e-16 -5.842000e-01
         vertex 1.899568e+00 7.706851e+00 -5.842000e-01
         vertex 3.111235e+00 7.302337e+00 -5.842000e-01
      endloop
   endfacet
   facet normal -1.000000e-15 1.000000e-15 -1.000000e+00
      outer loop
         vertex -9.156827e-15 -3.177026e-16 -5.842000e-01
         vertex 3.111235e+00 7.302337e+00 -5.842000e-01
         vertex 4.242322e+00 6.708696e+00 -5.842000e-01
      endloop
   endfacet
   facet normal 4.026609e-02 9.991890e-01 1.437776e-16
      outer loop
         vertex 6.387034e-01 7.911761e+00 -5.842000e-01
         vertex -6.240637e-15 7.937500e+00 -5.842000e-01
         vertex -4.622204e-15 7.937500e+00 -5.080000e-01
      endloop
   endfacet
   facet normal -4.026609e-02 9.991890e-01 1.854412e-15
      outer loop
         vertex -4.622204e-15 7.937500e+00 -5.080000e-01
         vertex -6.240637e-15 7.937500e+00 -5.842000e-01
         vertex -6.387034e-01 7.911761e+00 -5.080000e-01
      endloop
   endfacet
   facet normal -4.026609e-02 9.991890e-01 1.039455e-15
      outer loop
         vertex -6.240637e-15 7.937500e+00 -5.842000e-01
         vertex -6.387034e-01 7.911761e+00 -5.842000e-01
         vertex -6.387034e-01 7.911761e+00 -5.080000e-01
      endloop
   endfacet
   facet normal -1.604113e-01 9.870503e-01 1.147462e-15
      outer loop
         vertex -6.387034e-01 7.911761e+00 -5.080000e-01
         vertex -6.387034e-01 7.911761e+00 -5.842000e-01
         vertex -1.899568e+00 7.706851e+00 -5.842000e-01
      endloop
   endfacet
   facet normal -1.604113e-01 9.870503e-01 1.147462e-15
      outer loop
         vertex -6.387034e-01 7.911761e+00 -5.080000e-01
         vertex -1.899568e+00 7.706851e+00 -5.842000e-01
         vertex -1.899568e+00 7.706851e+00 -5.080000e-01
      endloop
   endfacet
   facet normal -3.166681e-01 9.485364e-01 1.265204e-15
      outer loop
         vertex -1.899568e+00 7.706851e+00 -5.080000e-01
         vertex -1.899568e+00 7.706851e+00 -5.842000e-01
         vertex -3.111235e+00 7.302337e+00 -5.842000e-01
      endloop
   endfacet
   facet normal -3.166681e-01 9.485364e-01 1.265204e-15
      outer loop
         vertex -1.899568e+00 7.706851e+00 -5.080000e-01
         vertex -3.111235e+00 7.302337e+00 -5.842000e-01
         vertex -3.111235e+00 7.302337e+00 -5.080000e-01
      endloop
   endfacet
   facet normal -4.647231e-01 8.854561e-01 1.350179e-15
      outer loop
         vertex -3.111235e+00 7.302337e+00 -5.080000e-01
         vertex -3.111235e+00 7.302337e+00 -5.842000e-01
         vertex -4.242322e+00 6.708696e+00 -5.842000e-01
      endloop
   endfacet
   facet normal -4.647231e-01 8.854561e-01 1.350179e-15
      outer loop
         vertex -3.111235e+00 7.302337e+00 -5.080000e-01
         vertex -4.242322e+00 6.708696e+00 -5.842000e-01
         vertex -4.242322e+00 6.708696e+00 -5.080000e-01
      endloop
   endfacet
   facet normal -6.007423e-01 7.994427e-01 1.400185e-15
      outer loop
         vertex -4.242322e+00 6.708696e+00 -5.080000e-01
         vertex -4.242322e+00 6.708696e+00 -5.842000e-01
         vertex -5.263536e+00 5.941304e+00 -5.842000e-01
      endloop
   endfacet
   facet normal -6.007423e-01 7.994427e-01 1.400185e-15
      outer loop
         vertex -4.242322e+00 6.708696e+00 -5.080000e-01
         vertex -5.263536e+00 5.941304e+00 -5.842000e-01
         vertex -5.263536e+00 5.941304e+00 -5.080000e-01
      endloop
   endfacet
   facet normal -7.212026e-01 6.927242e-01 1.413927e-15
      outer loop
         vertex -5.263536e+00 5.941304e+00 -5.080000e-01
         vertex -5.263536e+00 5.941304e+00 -5.842000e-01
         vertex -6.148427e+00 5.020035e+00 -5.842000e-01
      endloop
   endfacet
   facet normal -7.212026e-01 6.927242e-01 1.413927e-15
      outer loop
         vertex -5.263536e+00 5.941304e+00 -5.080000e-01
         vertex -6.148427e+00 5.020035e+00 -5.842000e-01
         vertex -6.148427e+00 5.020035e+00 -5.080000e-01
      endloop
   endfacet
   facet normal -8.229838e-01 5.680649e-01 1.391049e-15
      outer loop
         vertex -6.148427e+00 5.020035e+00 -5.080000e-01
         vertex -6.148427e+00 5.020035e+00 -5.842000e-01
         vertex -6.874077e+00 3.968750e+00 -5.842000e-01
      endloop
   endfacet
   facet normal -8.229838e-01 5.680649e-01 1.391049e-15
      outer loop
         vertex -6.148427e+00 5.020035e+00 -5.080000e-01
         vertex -6.874077e+00 3.968750e+00 -5.842000e-01
         vertex -6.874077e+00 3.968750e+00 -5.080000e-01
      endloop
   endfacet
   facet normal -9.034504e-01 4.286926e-01 1.332143e-15
      outer loop
         vertex -6.874077e+00 3.968750e+00 -5.080000e-01
         vertex -6.874077e+00 3.968750e+00 -5.842000e-01
         vertex -7.421691e+00 2.814676e+00 -5.842000e-01
      endloop
   endfacet
   facet normal -9.034504e-01 4.286926e-01 1.332143e-15
      outer loop
         vertex -6.874077e+00 3.968750e+00 -5.080000e-01
         vertex -7.421691e+00 2.814676e+00 -5.842000e-01
         vertex -7.421691e+00 2.814676e+00 -5.080000e-01
      endloop
   endfacet
   facet normal -9.605181e-01 2.782175e-01 1.238736e-15
      outer loop
         vertex -7.421691e+00 2.814676e+00 -5.080000e-01
         vertex -7.421691e+00 2.814676e+00 -5.842000e-01
         vertex -7.777088e+00 1.587704e+00 -5.842000e-01
      endloop
   endfacet
   facet normal -9.605181e-01 2.782175e-01 1.238736e-15
      outer loop
         vertex -7.421691e+00 2.814676e+00 -5.080000e-01
         vertex -7.777088e+00 1.587704e+00 -5.842000e-01
         vertex -7.777088e+00 1.587704e+00 -5.080000e-01
      endloop
   endfacet
   facet normal -9.927088e-01 1.205369e-01 1.113246e-15
      outer loop
         vertex -7.777088e+00 1.587704e+00 -5.080000e-01
         vertex -7.777088e+00 1.587704e+00 -5.842000e-01
         vertex -7.931063e+00 3.196109e-01 -5.842000e-01
      endloop
   endfacet
   facet normal -9.927088e-01 1.205369e-01 1.113246e-15
      outer loop
         vertex -7.777088e+00 1.587704e+00 -5.080000e-01
         vertex -7.931063e+00 3.196109e-01 -5.842000e-01
         vertex -7.931063e+00 3.196109e-01 -5.080000e-01
      endloop
   endfacet
   facet normal -9.991890e-01 -4.026596e-02 9.589230e-16
      outer loop
         vertex -7.931063e+00 3.196109e-01 -5.080000e-01
         vertex -7.931063e+00 3.196109e-01 -5.842000e-01
         vertex -7.879627e+00 -9.567599e-01 -5.842000e-01
      endloop
   endfacet
   facet normal -9.991890e-01 -4.026596e-02 9.589230e-16
      outer loop
         vertex -7.931063e+00 3.196109e-01 -5.080000e-01
         vertex -7.879627e+00 -9.567599e-01 -5.842000e-01
         vertex -7.879627e+00 -9.567599e-01 -5.080000e-01
      endloop
   endfacet
   facet normal -9.797906e-01 -2.000259e-01 7.797648e-16
      outer loop
         vertex -7.879627e+00 -9.567599e-01 -5.080000e-01
         vertex -7.879627e+00 -9.567599e-01 -5.842000e-01
         vertex -7.624113e+00 -2.208351e+00 -5.842000e-01
      endloop
   endfacet
   facet normal -9.797906e-01 -2.000259e-01 7.797648e-16
      outer loop
         vertex -7.879627e+00 -9.567599e-01 -5.080000e-01
         vertex -7.624113e+00 -2.208351e+00 -5.842000e-01
         vertex -7.624113e+00 -2.208351e+00 -5.080000e-01
      endloop
   endfacet
   facet normal -9.350162e-01 -3.546050e-01 5.804112e-16
      outer loop
         vertex -7.624113e+00 -2.208351e+00 -5.080000e-01
         vertex -7.624113e+00 -2.208351e+00 -5.842000e-01
         vertex -7.171138e+00 -3.402747e+00 -5.842000e-01
      endloop
   endfacet
   facet normal -9.350162e-01 -3.546050e-01 5.804112e-16
      outer loop
         vertex -7.624113e+00 -2.208351e+00 -5.080000e-01
         vertex -7.171138e+00 -3.402747e+00 -5.842000e-01
         vertex -7.171138e+00 -3.402747e+00 -5.080000e-01
      endloop
   endfacet
   facet normal -8.660254e-01 -4.999999e-01 3.660255e-16
      outer loop
         vertex -7.171138e+00 -3.402747e+00 -5.080000e-01
         vertex -7.171138e+00 -3.402747e+00 -5.842000e-01
         vertex -6.532434e+00 -4.509014e+00 -5.842000e-01
      endloop
   endfacet
   facet normal -8.660254e-01 -4.999999e-01 3.660255e-16
      outer loop
         vertex -7.171138e+00 -3.402747e+00 -5.080000e-01
         vertex -6.532434e+00 -4.509014e+00 -5.842000e-01
         vertex -6.532434e+00 -4.509014e+00 -5.080000e-01
      endloop
   endfacet
   facet normal -7.746050e-01 -6.324453e-01 1.421598e-16
      outer loop
         vertex -6.532434e+00 -4.509014e+00 -5.080000e-01
         vertex -6.532434e+00 -4.509014e+00 -5.842000e-01
         vertex -5.724545e+00 -5.498500e+00 -5.842000e-01
      endloop
   endfacet
   facet normal -7.746050e-01 -6.324453e-01 1.421598e-16
      outer loop
         vertex -6.532434e+00 -4.509014e+00 -5.080000e-01
         vertex -5.724545e+00 -5.498500e+00 -5.842000e-01
         vertex -5.724545e+00 -5.498500e+00 -5.080000e-01
      endloop
   endfacet
   facet normal -6.631226e-01 -7.485108e-01 -8.538826e-17
      outer loop
         vertex -5.724545e+00 -5.498500e+00 -5.080000e-01
         vertex -5.724545e+00 -5.498500e+00 -5.842000e-01
         vertex -4.768392e+00 -6.345577e+00 -5.842000e-01
      endloop
   endfacet
   facet normal -6.631226e-01 -7.485108e-01 -8.538826e-17
      outer loop
         vertex -5.724545e+00 -5.498500e+00 -5.080000e-01
         vertex -4.768392e+00 -6.345577e+00 -5.842000e-01
         vertex -4.768392e+00 -6.345577e+00 -5.080000e-01
      endloop
   endfacet
   facet normal -5.344658e-01 -8.451901e-01 -3.107243e-16
      outer loop
         vertex -4.768392e+00 -6.345577e+00 -5.080000e-01
         vertex -4.768392e+00 -6.345577e+00 -5.842000e-01
         vertex -3.688740e+00 -7.028307e+00 -5.842000e-01
      endloop
   endfacet
   facet normal -5.344658e-01 -8.451901e-01 -3.107243e-16
      outer loop
         vertex -4.768392e+00 -6.345577e+00 -5.080000e-01
         vertex -3.688740e+00 -7.028307e+00 -5.842000e-01
         vertex -3.688740e+00 -7.028307e+00 -5.080000e-01
      endloop
   endfacet
   facet normal -3.919667e-01 -9.199794e-01 -5.280127e-16
      outer loop
         vertex -3.688740e+00 -7.028307e+00 -5.080000e-01
         vertex -3.688740e+00 -7.028307e+00 -5.842000e-01
         vertex -2.513552e+00 -7.529008e+00 -5.842000e-01
      endloop
   endfacet
   facet normal -3.919667e-01 -9.199794e-01 -5.280127e-16
      outer loop
         vertex -3.688740e+00 -7.028307e+00 -5.080000e-01
         vertex -2.513552e+00 -7.529008e+00 -5.842000e-01
         vertex -2.513552e+00 -7.529008e+00 -5.080000e-01
      endloop
   endfacet
   facet normal -2.393153e-01 -9.709419e-01 -7.316266e-16
      outer loop
         vertex -2.513552e+00 -7.529008e+00 -5.080000e-01
         vertex -2.513552e+00 -7.529008e+00 -5.842000e-01
         vertex -1.273265e+00 -7.834711e+00 -5.842000e-01
      endloop
   endfacet
   facet normal -2.393153e-01 -9.709419e-01 -7.316266e-16
      outer loop
         vertex -2.513552e+00 -7.529008e+00 -5.080000e-01
         vertex -1.273265e+00 -7.834711e+00 -5.842000e-01
         vertex -1.273265e+00 -7.834711e+00 -5.080000e-01
      endloop
   endfacet
   facet normal -8.046704e-02 -9.967573e-01 -9.162902e-16
      outer loop
         vertex -1.273265e+00 -7.834711e+00 -5.080000e-01
         vertex -1.273265e+00 -7.834711e+00 -5.842000e-01
         vertex -9.156827e-15 -7.937500e+00 -5.842000e-01
      endloop
   endfacet
   facet normal -8.046704e-02 -9.967573e-01 -9.162902e-16
      outer loop
         vertex -1.273265e+00 -7.834711e+00 -5.080000e-01
         vertex -9.156827e-15 -7.937500e+00 -5.842000e-01
         vertex -9.119226e-15 -7.937500e+00 -5.080000e-01
      endloop
   endfacet
   facet normal 8.046704e-02 -9.967573e-01 -1.036464e-15
      outer loop
         vertex -9.119226e-15 -7.937500e+00 -5.080000e-01
         vertex -9.156827e-15 -7.937500e+00 -5.842000e-01
         vertex 1.273265e+00 -7.834711e+00 -5.842000e-01
      endloop
   endfacet
   facet normal 8.046704e-02 -9.967573e-01 -1.077224e-15
      outer loop
         vertex -9.119226e-15 -7.937500e+00 -5.080000e-01
         vertex 1.273265e+00 -7.834711e+00 -5.842000e-01
         vertex 1.273265e+00 -7.834711e+00 -5.080000e-01
      endloop
   endfacet
   facet normal 2.393153e-01 -9.709419e-01 -1.210257e-15
      outer loop
         vertex 1.273265e+00 -7.834711e+00 -5.080000e-01
         vertex 1.273265e+00 -7.834711e+00 -5.842000e-01
         vertex 2.513552e+00 -7.529008e+00 -5.842000e-01
      endloop
   endfacet
   facet normal 2.393153e-01 -9.709419e-01 -1.210257e-15
      outer loop
         vertex 1.273265e+00 -7.834711e+00 -5.080000e-01
         vertex 2.513552e+00 -7.529008e+00 -5.842000e-01
         vertex 2.513552e+00 -7.529008e+00 -5.080000e-01
      endloop
   endfacet
   facet normal 3.919667e-01 -9.199794e-01 -1.311946e-15
      outer loop
         vertex 2.513552e+00 -7.529008e+00 -5.080000e-01
         vertex 2.513552e+00 -7.529008e+00 -5.842000e-01
         vertex 3.688740e+00 -7.028307e+00 -5.842000e-01
      endloop
   endfacet
   facet normal 3.919667e-01 -9.199794e-01 -1.311946e-15
      outer loop
         vertex 2.513552e+00 -7.529008e+00 -5.080000e-01
         vertex 3.688740e+00 -7.028307e+00 -5.842000e-01
         vertex 3.688740e+00 -7.028307e+00 -5.080000e-01
      endloop
   endfacet
   facet normal 5.344658e-01 -8.451901e-01 -1.379656e-15
      outer loop
         vertex 3.688740e+00 -7.028307e+00 -5.080000e-01
         vertex 3.688740e+00 -7.028307e+00 -5.842000e-01
         vertex 4.768392e+00 -6.345577e+00 -5.842000e-01
      endloop
   endfacet
   facet normal 5.344658e-01 -8.451901e-01 -1.379656e-15
      outer loop
         vertex 3.688740e+00 -7.028307e+00 -5.080000e-01
         vertex 4.768392e+00 -6.345577e+00 -5.842000e-01
         vertex 4.768392e+00 -6.345577e+00 -5.080000e-01
      endloop
   endfacet
   facet normal 6.631226e-01 -7.485108e-01 -1.411633e-15
      outer loop
         vertex 4.768392e+00 -6.345577e+00 -5.080000e-01
         vertex 4.768392e+00 -6.345577e+00 -5.842000e-01
         vertex 5.724545e+00 -5.498500e+00 -5.842000e-01
      endloop
   endfacet
   facet normal 6.631226e-01 -7.485108e-01 -1.411633e-15
      outer loop
         vertex 4.768392e+00 -6.345577e+00 -5.080000e-01
         vertex 5.724545e+00 -5.498500e+00 -5.842000e-01
         vertex 5.724545e+00 -5.498500e+00 -5.080000e-01
      endloop
   endfacet
   facet normal 7.746050e-01 -6.324453e-01 -1.407050e-15
      outer loop
         vertex 5.724545e+00 -5.498500e+00 -5.080000e-01
         vertex 5.724545e+00 -5.498500e+00 -5.842000e-01
         vertex 6.532434e+00 -4.509014e+00 -5.842000e-01
      endloop
   endfacet
   facet normal 7.746050e-01 -6.324453e-01 -1.407050e-15
      outer loop
         vertex 5.724545e+00 -5.498500e+00 -5.080000e-01
         vertex 6.532434e+00 -4.509014e+00 -5.842000e-01
         vertex 6.532434e+00 -4.509014e+00 -5.080000e-01
      endloop
   endfacet
   facet normal 8.660254e-01 -4.999999e-01 -1.366025e-15
      outer loop
         vertex 6.532434e+00 -4.509014e+00 -5.080000e-01
         vertex 6.532434e+00 -4.509014e+00 -5.842000e-01
         vertex 7.171138e+00 -3.402747e+00 -5.842000e-01
      endloop
   endfacet
   facet normal 8.660254e-01 -4.999999e-01 -1.366025e-15
      outer loop
         vertex 6.532434e+00 -4.509014e+00 -5.080000e-01
         vertex 7.171138e+00 -3.402747e+00 -5.842000e-01
         vertex 7.171138e+00 -3.402747e+00 -5.080000e-01
      endloop
   endfacet
   facet normal 9.350162e-01 -3.546050e-01 -1.289621e-15
      outer loop
         vertex 7.171138e+00 -3.402747e+00 -5.080000e-01
         vertex 7.171138e+00 -3.402747e+00 -5.842000e-01
         vertex 7.624113e+00 -2.208351e+00 -5.842000e-01
      endloop
   endfacet
   facet normal 9.350162e-01 -3.546050e-01 -1.289621e-15
      outer loop
         vertex 7.171138e+00 -3.402747e+00 -5.080000e-01
         vertex 7.624113e+00 -2.208351e+00 -5.842000e-01
         vertex 7.624113e+00 -2.208351e+00 -5.080000e-01
      endloop
   endfacet
   facet normal 9.797906e-01 -2.000259e-01 -1.179816e-15
      outer loop
         vertex 7.624113e+00 -2.208351e+00 -5.080000e-01
         vertex 7.624113e+00 -2.208351e+00 -5.842000e-01
         vertex 7.879627e+00 -9.567599e-01 -5.842000e-01
      endloop
   endfacet
   facet normal 9.797906e-01 -2.000259e-01 -1.179816e-15
      outer loop
         vertex 7.624113e+00 -2.208351e+00 -5.080000e-01
         vertex 7.879627e+00 -9.567599e-01 -5.842000e-01
         vertex 7.879627e+00 -9.567599e-01 -5.080000e-01
      endloop
   endfacet
   facet normal 9.991890e-01 -4.026596e-02 -1.039455e-15
      outer loop
         vertex 7.879627e+00 -9.567599e-01 -5.080000e-01
         vertex 7.879627e+00 -9.567599e-01 -5.842000e-01
         vertex 7.931063e+00 3.196109e-01 -5.842000e-01
      endloop
   endfacet
   facet normal 9.991890e-01 -4.026596e-02 -1.039455e-15
      outer loop
         vertex 7.879627e+00 -9.567599e-01 -5.080000e-01
         vertex 7.931063e+00 3.196109e-01 -5.842000e-01
         vertex 7.931063e+00 3.196109e-01 -5.080000e-01
      endloop
   endfacet
   facet normal 9.927088e-01 1.205369e-01 -8.721720e-16
      outer loop
         vertex 7.931063e+00 3.196109e-01 -5.080000e-01
         vertex 7.931063e+00 3.196109e-01 -5.842000e-01
         vertex 7.777088e+00 1.587704e+00 -5.842000e-01
      endloop
   endfacet
   facet normal 9.927088e-01 1.205369e-01 -8.721720e-16
      outer loop
         vertex 7.931063e+00 3.196109e-01 -5.080000e-01
         vertex 7.777088e+00 1.587704e+00 -5.842000e-01
         vertex 7.777088e+00 1.587704e+00 -5.080000e-01
      endloop
   endfacet
   facet normal 9.605181e-01 2.782175e-01 -6.823007e-16
      outer loop
         vertex 7.777088e+00 1.587704e+00 -5.080000e-01
         vertex 7.777088e+00 1.587704e+00 -5.842000e-01
         vertex 7.421691e+00 2.814676e+00 -5.842000e-01
      endloop
   endfacet
   facet normal 9.605181e-01 2.782175e-01 -6.823007e-16
      outer loop
         vertex 7.777088e+00 1.587704e+00 -5.080000e-01
         vertex 7.421691e+00 2.814676e+00 -5.842000e-01
         vertex 7.421691e+00 2.814676e+00 -5.080000e-01
      endloop
   endfacet
   facet normal 9.034504e-01 4.286926e-01 -4.747578e-16
      outer loop
         vertex 7.421691e+00 2.814676e+00 -5.080000e-01
         vertex 7.421691e+00 2.814676e+00 -5.842000e-01
         vertex 6.874077e+00 3.968750e+00 -5.842000e-01
      endloop
   endfacet
   facet normal 9.034504e-01 4.286926e-01 -4.747578e-16
      outer loop
         vertex 7.421691e+00 2.814676e+00 -5.080000e-01
         vertex 6.874077e+00 3.968750e+00 -5.842000e-01
         vertex 6.874077e+00 3.968750e+00 -5.080000e-01
      endloop
   endfacet
   facet normal 8.229838e-01 5.680649e-01 -2.549189e-16
      outer loop
         vertex 6.874077e+00 3.968750e+00 -5.080000e-01
         vertex 6.874077e+00 3.968750e+00 -5.842000e-01
         vertex 6.148427e+00 5.020035e+00 -5.842000e-01
      endloop
   endfacet
   facet normal 8.229838e-01 5.680649e-01 -2.549189e-16
      outer loop
         vertex 6.874077e+00 3.968750e+00 -5.080000e-01
         vertex 6.148427e+00 5.020035e+00 -5.842000e-01
         vertex 6.148427e+00 5.020035e+00 -5.080000e-01
      endloop
   endfacet
   facet normal 7.212026e-01 6.927242e-01 -2.847832e-17
      outer loop
         vertex 6.148427e+00 5.020035e+00 -5.080000e-01
         vertex 6.148427e+00 5.020035e+00 -5.842000e-01
         vertex 5.263536e+00 5.941304e+00 -5.842000e-01
      endloop
   endfacet
   facet normal 7.212026e-01 6.927242e-01 -2.847832e-17
      outer loop
         vertex 6.148427e+00 5.020035e+00 -5.080000e-01
         vertex 5.263536e+00 5.941304e+00 -5.842000e-01
         vertex 5.263536e+00 5.941304e+00 -5.080000e-01
      endloop
   endfacet
   facet normal 6.007423e-01 7.994427e-01 1.987004e-16
      outer loop
         vertex 5.263536e+00 5.941304e+00 -5.080000e-01
         vertex 5.263536e+00 5.941304e+00 -5.842000e-01
         vertex 4.242322e+00 6.708696e+00 -5.842000e-01
      endloop
   endfacet
   facet normal 6.007423e-01 7.994427e-01 1.987004e-16
      outer loop
         vertex 5.263536e+00 5.941304e+00 -5.080000e-01
         vertex 4.242322e+00 6.708696e+00 -5.842000e-01
         vertex 4.242322e+00 6.708696e+00 -5.080000e-01
      endloop
   endfacet
   facet normal 4.647231e-01 8.854561e-01 4.207330e-16
      outer loop
         vertex 4.242322e+00 6.708696e+00 -5.080000e-01
         vertex 4.242322e+00 6.708696e+00 -5.842000e-01
         vertex 3.111235e+00 7.302337e+00 -5.842000e-01
      endloop
   endfacet
   facet normal 4.647231e-01 8.854561e-01 4.207330e-16
      outer loop
         vertex 4.242322e+00 6.708696e+00 -5.080000e-01
         vertex 3.111235e+00 7.302337e+00 -5.842000e-01
         vertex 3.111235e+00 7.302337e+00 -5.080000e-01
      endloop
   endfacet
   facet normal 3.166681e-01 9.485364e-01 6.318683e-16
      outer loop
         vertex 3.111235e+00 7.302337e+00 -5.080000e-01
         vertex 3.111235e+00 7.302337e+00 -5.842000e-01
         vertex 1.899568e+00 7.706851e+00 -5.842000e-01
      endloop
   endfacet
   facet normal 3.166681e-01 9.485364e-01 6.318683e-16
      outer loop
         vertex 3.111235e+00 7.302337e+00 -5.080000e-01
         vertex 1.899568e+00 7.706851e+00 -5.842000e-01
         vertex 1.899568e+00 7.706851e+00 -5.080000e-01
      endloop
   endfacet
   facet normal 1.604113e-01 9.870503e-01 8.266389e-16
      outer loop
         vertex 1.899568e+00 7.706851e+00 -5.080000e-01
         vertex 1.899568e+00 7.706851e+00 -5.842000e-01
         vertex 6.387034e-01 7.911761e+00 -5.842000e-01
      endloop
   endfacet
   facet normal 1.604113e-01 9.870503e-01 8.266389e-16
      outer loop
         vertex 1.899568e+00 7.706851e+00 -5.080000e-01
         vertex 6.387034e-01 7.911761e+00 -5.842000e-01
         vertex 6.387034e-01 7.911761e+00 -5.080000e-01
      endloop
   endfacet
   facet normal 4.026609e-02 9.991890e-01 9.589229e-16
      outer loop
         vertex 6.387034e-01 7.911761e+00 -5.080000e-01
         vertex 6.387034e-01 7.911761e+00 -5.842000e-01
         vertex -4.622204e-15 7.937500e+00 -5.080000e-01
      endloop
   endfacet
endsolid